<?xml version="1.0" encoding="iso-8859-1"?>
<!-- Generator: Adobe Illustrator 19.0.0, SVG Export Plug-In . SVG Version: 6.00 Build 0)  -->
<svg version="1.1" id="Layer_1" xmlns="http://www.w3.org/2000/svg" xmlns:xlink="http://www.w3.org/1999/xlink" x="0px" y="0px"
	 viewBox="0 0 490 490" style="enable-background:new 0 0 490 490;" xml:space="preserve">
<g>
	<g id="XMLID_42_">
		<g>
			<polygon style="fill:#F4661E;" points="479.999,295 479.999,385 429.999,385 429.999,295 454.999,295 			"/>
			<polygon style="fill:#999999;" points="394.999,200 394.999,450 94.999,450 94.999,200 95.65,198.73 244.999,275 394.349,198.73 
							"/>
			<polygon style="fill:#666666;" points="454.999,167.77 394.349,198.73 244.999,275 95.65,198.73 9.999,155 244.999,40 
				479.999,155 			"/>
		</g>
		<g>
			<path d="M479.999,285h-15V173.888l19.549-9.982c3.373-1.723,5.483-5.204,5.451-8.991c-0.033-3.787-2.202-7.232-5.604-8.896
				l-235-115c-2.773-1.358-6.018-1.358-8.791,0l-235,115c-3.402,1.664-5.572,5.109-5.604,8.897
				c-0.032,3.788,2.079,7.269,5.453,8.991l79.546,40.613V450c0,5.523,4.477,10,10,10h300c5.522,0,10-4.477,10-10V204.526l40-20.425
				V285h-15c-5.522,0-10,4.477-10,10v90c0,5.523,4.478,10,10,10h50c5.522,0,10-4.477,10-10v-90
				C489.999,289.477,485.522,285,479.999,285z M244.999,51.134l212.642,104.059l-67.84,34.632l-144.802,73.947l-144.803-73.948
				L32.363,155.19L244.999,51.134z M384.999,440h-280V214.733l135.452,69.173c1.428,0.73,2.989,1.094,4.548,1.094
				s3.12-0.365,4.548-1.094l135.452-69.167V440z M469.999,375h-30v-70h30V375z"/>
			<rect x="229.999" y="140" width="30" height="20"/>
		</g>
	</g>
</g>
<g>
</g>
<g>
</g>
<g>
</g>
<g>
</g>
<g>
</g>
<g>
</g>
<g>
</g>
<g>
</g>
<g>
</g>
<g>
</g>
<g>
</g>
<g>
</g>
<g>
</g>
<g>
</g>
<g>
</g>
</svg>
